<?xml version="1.0" standalone="no"?>
<!DOCTYPE svg PUBLIC "-//W3C//DTD SVG 20010904//EN"
 "http://www.w3.org/TR/2001/REC-SVG-20010904/DTD/svg10.dtd">
<svg version="1.0" xmlns="http://www.w3.org/2000/svg"
 width="360.000000pt" height="360.000000pt" viewBox="0 0 360.000000 360.000000"
 preserveAspectRatio="xMidYMid meet">

<g transform="translate(0.000000,360.000000) scale(0.100000,-0.100000)"
fill="#000000" stroke="none">
<path d="M279 2941 c-42 -42 -42 -110 0 -152 l29 -29 156 0 c139 0 156 -2 165
-18 5 -10 92 -238 194 -507 102 -270 229 -606 282 -749 88 -232 96 -260 81
-268 -73 -41 -140 -148 -151 -243 -10 -80 22 -178 79 -241 60 -67 123 -97 213
-102 103 -6 162 16 234 87 76 75 103 146 96 249 l-5 72 312 0 313 0 -5 -77
c-5 -100 20 -173 84 -238 65 -67 131 -95 225 -95 130 0 231 66 287 188 21 48
24 64 20 140 -3 64 -10 98 -27 130 -28 55 -90 115 -149 144 l-47 23 -622 3
-621 3 -26 67 c-14 37 -26 71 -26 75 0 4 305 7 678 7 420 0 691 4 713 10 20 6
43 18 52 28 26 28 327 1018 320 1052 -3 16 -18 41 -35 57 l-29 28 -1076 5
-1075 5 -62 164 c-45 118 -70 171 -90 188 -27 23 -31 23 -242 23 l-216 0 -29
-29z m1324 -633 c4 -35 9 -109 13 -166 l7 -102 -249 2 -249 3 -61 163 -62 162
298 0 297 0 6 -62z m613 20 c-3 -24 -8 -88 -11 -143 -4 -55 -8 -110 -11 -122
l-4 -23 -229 0 -228 0 -7 88 c-3 48 -9 122 -12 165 l-7 77 258 0 257 0 -6 -42z
m664 38 c0 -1 -4 -16 -9 -32 -6 -16 -28 -89 -51 -161 l-41 -133 -240 0 -241 0
6 38 c3 20 8 82 11 137 3 55 9 112 11 128 l6 27 274 0 c151 0 274 -2 274 -4z
m-1249 -438 c4 -16 23 -290 20 -294 -2 -2 -86 -4 -187 -4 -164 0 -183 2 -189
18 -4 9 -26 69 -50 132 -24 63 -46 123 -50 133 -7 16 8 17 224 17 127 0 231
-1 232 -2z m545 -105 c-4 -60 -9 -127 -12 -151 l-6 -42 -197 2 -196 3 -7 85
c-3 47 -9 113 -12 148 l-5 62 221 0 221 0 -7 -107z m564 100 c1 -5 -18 -72
-42 -150 l-43 -143 -194 0 -193 0 6 53 c3 28 9 96 12 150 l7 97 223 0 c123 0
224 -3 224 -7z m-1327 -908 c30 -31 37 -62 23 -106 -13 -40 -67 -73 -106 -64
-40 9 -80 60 -80 101 0 81 105 126 163 69z m1232 2 c17 -14 28 -36 32 -63 4
-33 1 -45 -21 -71 -47 -56 -131 -46 -162 20 -45 95 71 183 151 114z"/>
</g>
</svg>
